<?xml version="1.0" encoding="UTF-8" standalone="no"?>
<!-- Created with Inkscape (http://www.inkscape.org/) -->

<svg
   version="1.1"
   id="svg1"
   width="665"
   height="665"
   viewBox="0 0 665 665"
   sodipodi:docname="logo.svg"
   inkscape:version="1.4.2 (f4327f4, 2025-05-13)"
   xmlns:inkscape="http://www.inkscape.org/namespaces/inkscape"
   xmlns:sodipodi="http://sodipodi.sourceforge.net/DTD/sodipodi-0.dtd"
   xmlns="http://www.w3.org/2000/svg"
   xmlns:svg="http://www.w3.org/2000/svg">
  <defs
     id="defs1" />
  <sodipodi:namedview
     id="namedview1"
     pagecolor="#ffffff"
     bordercolor="#cccccc"
     borderopacity="1"
     inkscape:showpageshadow="0"
     inkscape:pageopacity="1"
     inkscape:pagecheckerboard="0"
     inkscape:deskcolor="#d1d1d1"
     inkscape:zoom="1.2135338"
     inkscape:cx="332.5"
     inkscape:cy="273.99318"
     inkscape:window-width="1920"
     inkscape:window-height="1009"
     inkscape:window-x="-8"
     inkscape:window-y="-8"
     inkscape:window-maximized="1"
     inkscape:current-layer="g1" />
  <g
     inkscape:groupmode="layer"
     inkscape:label="Image"
     id="g1">
    <path
       style="fill:#d4af37;fill-opacity:1"
       d="M 317.29402,591.92951 C 263.13593,588.47179 215.0218,570.13816 171,536.18495 160.09882,527.77707 136.53734,504.23956 126.77004,492 97.126507,454.8532 78.067599,408.93133 72.484133,361.19972 70.746634,346.34629 70.542355,315.99754 72.075047,300.42368 80.327817,216.56634 130.00778,141.83402 205.53781,99.65901 257.01644,70.913992 323.84364,61.50743 387,74.116486 c 40.41415,8.068613 78.31416,25.944644 111.5,52.590434 12.67705,10.17873 33.77061,31.90807 43.5,44.81111 25.79697,34.21175 42.76721,75.61263 49.67042,121.17678 2.36564,15.61429 2.34778,56.54423 -0.0318,72.80519 -6.54868,44.75115 -23.23918,86.02393 -48.1376,119.03613 -35.86223,47.54886 -82.20305,80.33283 -137.05293,96.95858 -28.73514,8.71001 -59.59541,12.32197 -89.15409,10.4348 z M 359.5,588.9397 c 30.62761,-3.10863 65.67565,-13.8417 93.18105,-28.53566 28.24163,-15.08726 52.53798,-34.30925 73.58932,-58.21997 35.33998,-40.14019 54.73762,-81.67044 62.90721,-134.68407 3.0612,-19.86457 3.0965,-56.92672 0.0729,-76.51358 -4.86281,-31.50089 -13.79598,-58.59015 -28.25149,-85.67088 C 549.66401,184.08084 537.63821,167.79309 519.51371,149.1279 479.1299,107.53937 430.12684,82.694038 370,73.322085 355.43091,71.051205 309.5137,70.753783 295.5,72.839521 236.67986,81.594059 188.23947,105.57691 148.39567,145.67093 121.25002,172.98704 100.55708,205.22476 88.168093,239.5 83.408016,252.66918 77.657309,275.52656 75.462758,290 c -2.171431,14.32096 -3.017238,48.47839 -1.572388,63.5 4.257135,44.25996 18.344814,84.20345 42.32282,120 C 170.58364,554.66912 263.37066,598.6966 359.5,588.9397 Z M 315,578.92592 C 255.04921,574.83537 197.49792,547.92934 154.40841,503.84712 134.78665,483.77331 119.73725,462.58572 107.99278,438.5 96.164872,414.24316 89.328241,392.45696 85.398772,366.5 83.145051,351.61256 82.794954,311.38774 84.798231,297.5 92.000783,247.56821 110.38679,204.89197 139.72955,169.99748 195.52373,103.6469 277.61489,72.303238 366,83.603965 c 53.6785,6.863215 102.43107,30.415175 141.22589,68.225045 42.41915,41.34218 65.24034,88.5722 72.79521,150.65474 1.41447,11.62344 1.42987,43.47136 0.0266,55.01625 -7.16535,58.95074 -32.09678,110.07004 -73.18509,150.05845 -20.4185,19.8719 -41.16063,34.59653 -65.36262,46.40026 -30.70048,14.97315 -59.54865,22.77202 -92.57446,25.02677 -15.84992,1.08211 -17.22886,1.07969 -33.92554,-0.0596 z m 33.91908,-1.97933 C 410.74979,572.51424 466.9511,545.96834 511,500.38992 c 36.93642,-38.21896 59.20272,-85.07628 66.5058,-139.95519 1.92584,-14.47172 1.92106,-45.98172 -0.009,-61.13351 C 570.38017,243.44286 548.62488,197.21213 511.53949,159.14026 473.93996,120.54058 428.97526,96.709027 376,87.303535 356.32091,83.80961 320.05561,82.92561 299.87014,85.447799 237.52369,93.238031 183.91129,121.99938 143.19322,169.5 79.040396,244.33897 66.726795,356.79744 113.13845,443.98619 153.93032,520.61761 231.67031,571.43867 316.5,576.92997 c 17.56018,1.13673 16.79906,1.13634 32.41908,0.0166 z M 315,500.97445 c -11.18499,-1.5686 -25.57165,-5.67751 -34.45581,-9.84077 C 275.84488,488.93151 272,486.65055 272,486.06487 272,485.47919 272.16648,485 272.36996,485 c 2.26912,0 22.9842,-7.03907 30.67209,-10.4225 9.27106,-4.08018 10.21501,-4.3002 14.19473,-3.30853 7.53494,1.87756 28.18504,1.26433 38.03559,-1.12951 29.62533,-7.19945 53.35299,-24.17927 72.54939,-51.91729 10.65605,-15.39757 16.08736,-28.78773 18.70312,-46.11009 0.77969,-5.16335 1.65624,-9.62653 1.94788,-9.91817 1.14638,-1.14638 6.31384,2.7338 16.19637,12.16165 5.6922,5.4303 10.33087,10.67041 10.33087,11.67032 0,3.15801 -6.00734,19.10308 -11.03391,29.28691 -25.66784,52.00304 -74.35683,84.53478 -128.96609,86.16919 -7.425,0.22223 -16.425,-0.006 -20,-0.50753 z m 41.68841,-3.90928 c 12.43859,-2.53686 24.87064,-6.7827 36.81159,-12.57202 34.72745,-16.83687 62.70054,-49.46995 76.55728,-89.31084 l 3.24071,-9.31768 -5.399,-5.54154 c -2.96944,-3.04785 -8.05846,-7.78284 -11.30893,-10.52221 -6.69697,-5.64395 -6.95626,-5.53107 -8.04686,3.50332 -2.66932,22.11244 -15.391,45.53433 -36.01349,66.30448 -17.32491,17.44895 -32.56421,26.40492 -54.16466,31.83197 -12.79644,3.21507 -25.45625,4.1154 -36.89611,2.62394 l -9.03105,-1.17741 -6.96895,3.15912 c -3.83292,1.73752 -12.05531,4.84198 -18.27199,6.8988 l -11.30306,3.73968 7.09355,3.17178 c 21.53064,9.62713 48.77641,12.29201 73.70097,7.20861 z M 211,481.86092 c -15.89992,-0.80305 -25.29584,-2.59649 -41.12127,-7.84899 -12.99704,-4.31375 -22.72135,-8.93344 -33.96699,-16.13654 -11.8293,-7.57696 -11.5872,-7.10864 -9.56754,-18.50709 3.56371,-20.11273 12.97192,-43.84179 24.23117,-61.115 5.52258,-8.47239 22.69831,-27.2533 24.924,-27.2533 0.8067,0 1.42114,3.05972 1.85755,9.25 0.35867,5.0875 1.34159,13.19494 2.18426,18.01654 l 1.53214,8.76654 -2.90399,4.23346 c -7.25407,10.57505 -18.10705,34.18891 -19.67623,42.81143 -0.64984,3.57088 -0.63956,3.5831 5.17788,6.15691 8.32397,3.68277 23.4288,8.32406 33.32902,10.24108 25.17268,4.87428 65.71839,1.70395 88.48773,-6.91898 25.40853,-9.62242 55.06569,-31.6578 61.92832,-46.01297 4.4195,-9.24464 4.58769,-16.20631 0.63006,-26.07867 -5.90113,-14.72045 -5.31666,-20.7556 3.91329,-40.40743 6.8432,-14.57013 8.0274,-18.44738 8.03502,-26.30791 0.008,-7.82353 2.07995,-7.64752 5.88699,0.5 3.70926,7.93824 5.70205,14.92274 7.48954,26.25 0.78114,4.95 2.41215,13.5 3.62448,19 4.14658,18.81185 1.76879,37.09739 -7.12263,54.77416 -13.40875,26.65752 -40.4895,50.82956 -71.3728,63.70672 -25.27501,10.53871 -53.01346,14.62183 -87.5,12.88004 z m 43.99549,-3.38912 c 52.0271,-7.3938 95.21019,-36.51843 114.09547,-76.95113 5.92059,-12.67577 7.35095,-19.21211 7.33541,-33.52067 -0.0103,-9.52348 -0.53107,-14.52404 -2.18681,-21 -1.19527,-4.675 -2.85991,-12.86248 -3.69918,-18.19441 -1.6186,-10.28298 -5.42056,-21.93232 -7.37007,-22.58215 -0.70941,-0.23647 -1.17251,0.72573 -1.17589,2.44323 -0.009,4.79288 -1.8999,10.32567 -7.97264,23.33333 -9.05322,19.39179 -9.54111,24.44897 -3.75876,38.96117 2.58114,6.47797 2.91186,8.38871 2.50977,14.5 -1.04932,15.94832 -12.62627,29.56237 -39.36501,46.29178 -17.89808,11.19814 -32.13204,16.77731 -52.05203,20.40242 -9.80455,1.78426 -15.83506,2.16925 -34.85575,2.22519 -21.67343,0.0637 -23.66329,-0.0892 -34.5,-2.65264 -11.46976,-2.71314 -20.82054,-5.7529 -30.73293,-9.99071 -4.53656,-1.93949 -5.23521,-2.61298 -5.25,-5.06089 -0.0407,-6.73274 10.45819,-31.49394 18.76844,-44.26459 l 3.96182,-6.08828 -1.30864,-6.91172 c -0.71975,-3.80145 -1.62095,-10.84923 -2.00265,-15.66173 -0.3817,-4.8125 -1.03922,-8.75 -1.46114,-8.75 -1.67126,0 -16.23728,16.58519 -21.46104,24.43602 -10.4964,15.77511 -19.29692,37.56933 -23.58407,58.40518 -1.06138,5.15843 -1.92979,9.7677 -1.92979,10.24283 0,0.47514 3.17155,3.09117 7.04789,5.81342 17.28357,12.13778 40.716,21.30051 62.95211,24.61603 12.13372,1.8092 45.13853,1.78548 57.99549,-0.0417 z M 426.5,481.26507 c -2.2,-0.2193 -4.32614,-0.71729 -4.72475,-1.10665 -0.39862,-0.38936 5.24636,-6.81168 12.54439,-14.27183 l 13.26914,-13.56391 8.95561,-0.6046 c 4.92559,-0.33253 13.30235,-1.71887 18.61504,-3.08076 8.61398,-2.20817 28.06625,-9.30466 31.75613,-11.58513 3.12911,-1.9339 -9.53892,-31.82254 -19.89838,-46.94775 -15.19962,-22.19204 -38.56535,-39.93803 -63.26718,-48.05065 -3.7125,-1.21927 -6.74205,-2.51766 -6.73234,-2.88532 0.01,-0.36766 1.33282,-4.83546 2.94023,-9.92845 1.60741,-5.09298 3.22638,-11.28602 3.59772,-13.76229 0.37134,-2.47628 1.08417,-4.7551 1.58407,-5.06406 1.66745,-1.03054 17.22187,4.75606 28.97762,10.78033 32.07665,16.43777 60.07527,46.37883 74.17517,79.32113 5.98292,13.97821 12.14185,38.68433 11.51913,46.20826 -0.28237,3.4118 -0.96825,4.21924 -7.3116,8.60744 -8.18647,5.66323 -28.18702,15.55153 -37.5,18.54006 -20.99113,6.73604 -46.96999,9.54031 -68.5,7.39418 z m 34.28941,-2.32155 c 24.93408,-2.71276 50.82161,-11.91855 69.71059,-24.78961 8.23374,-5.61052 8.55047,-6.64406 5.94911,-19.41284 C 529.45461,400.40852 514.66376,373.23195 490.32878,350 478.17935,338.40126 467.43533,330.61609 453.62299,323.40278 443.9141,318.33244 430.43372,313 427.32485,313 426.59618,313 426,313.84148 426,314.86996 c 0,1.02847 -1.35,6.41422 -3,11.96833 -1.65,5.55411 -3,10.48045 -3,10.94742 0,0.46698 2.50628,1.63908 5.56951,2.60468 29.86507,9.41413 58.16166,34.84732 73.26793,65.85377 C 503.98765,416.81525 510,432.80544 510,435.93164 c 0,1.79315 -6.89385,5.4313 -19,10.02702 -9.61806,3.65119 -25.21877,7.23146 -33.99587,7.80183 l -8.49588,0.5521 -12.00412,12.33238 -12.00413,12.33237 4,0.33663 c 9.2351,0.77718 23.21529,0.61679 32.28941,-0.37045 z M 350.25,458.07263 c -3.4375,-2.21199 -6.21583,-4.59574 -6.17407,-5.29722 0.061,-1.02532 13.87256,-13.26636 19.41686,-17.20899 0.89197,-0.63429 3.88521,0.24227 9.33675,2.73424 4.41315,2.0173 10.08188,4.21824 12.59718,4.89098 2.94308,0.78716 4.56705,1.77305 4.55581,2.76576 -0.0327,2.88813 -22.68079,14.83499 -29.73523,15.68534 -3.10224,0.37394 -4.82317,-0.24061 -9.9973,-3.57011 z m 16.43133,-0.68202 c 3.58734,-1.43516 9.70313,-4.44319 13.59063,-6.6845 5.84047,-3.36728 6.73468,-4.20501 5.14811,-4.82296 -1.05604,-0.41131 -6.1275,-2.55568 -11.26992,-4.76527 l -9.34985,-4.01742 -8.90015,7.64943 C 351.00507,448.95707 347,452.65101 347,452.95865 c 0,0.85611 10.31961,6.96933 11.82944,7.00763 0.7312,0.0185 4.26455,-1.1405 7.85189,-2.57567 z M 218.19878,442.59982 C 195.04837,417.48459 182.69803,382.07255 184.33416,345.5 c 1.65928,-37.09007 15.12082,-69.16394 39.91234,-95.09632 10.42935,-10.90928 12.40009,-11.72391 11.25817,-4.65368 -0.42195,2.6125 -0.86661,12.6608 -0.98813,22.32955 l -0.22094,17.57955 -3.45969,5.92045 c -19.11683,32.7139 -21.77398,70.32691 -7.37939,104.45782 5.86539,13.90737 19.12621,33.6982 28.40989,42.39972 5.57372,5.22421 4.77598,5.75388 -11.36641,7.54685 -16.43372,1.82533 -17.67261,1.63734 -22.30122,-3.38412 z M 237,443.97198 c 16.57492,-1.45703 16.08994,-0.97831 8.91114,-8.79597 -12.46096,-13.56988 -24.45146,-34.65796 -29.38369,-51.67803 -8.79972,-30.366 -3.98449,-66.59746 12.38709,-93.20467 l 3.05146,-4.95925 0.36432,-20.37668 0.36433,-20.37668 -7.76557,8.18286 c -18.24315,19.22346 -30.57662,43.69236 -36.14661,71.71281 -3.0962,15.57578 -3.06811,39.69709 0.0632,54.30199 2.8731,13.4004 7.7957,27.02641 13.63114,37.73166 6.77464,12.42825 19.17485,28.50411 21.96932,28.48143 0.57961,-0.005 6.22883,-0.46347 12.55383,-1.01947 z M 306.3398,414.1567 C 295.63844,405.65873 288.22323,395.58881 284.86962,385 c -2.92821,-9.2456 -2.90859,-24.68238 0.0451,-35.5 2.86567,-10.4952 10.9906,-27.30292 20.08296,-41.5448 10.18819,-15.95834 13.83903,-23.52224 15.65756,-32.43969 1.85078,-9.07559 0.86415,-16.61208 -3.31579,-25.32804 -1.40126,-2.92189 -2.24793,-5.61233 -1.8815,-5.97877 0.36644,-0.36643 3.6758,0.89287 7.35414,2.79845 14.57542,7.55086 25.91918,23.7132 28.32777,40.3608 1.88274,13.01306 0.19924,21.23036 -10.16822,49.63205 -5.09999,13.97145 -6.31533,25.86608 -3.59795,35.21354 1.9665,6.76453 1.96737,6.78646 0.26788,6.78646 -1.95997,0 -8.40086,-10.13823 -11.35314,-17.87032 -1.8474,-4.83838 -2.70118,-9.46672 -3.1599,-17.12968 L 322.5,333.5 l -3.75964,5 c -6.31924,8.40405 -12.3843,21.46035 -13.76128,29.62404 -2.25839,13.38926 2.25361,26.99646 12.4385,37.51178 3.07033,3.16995 5.58242,6.25901 5.58242,6.86459 0,1.19193 -8.17494,5.49959 -10.43695,5.49959 -0.7609,0 -3.56136,-1.72948 -6.22325,-3.8433 z m 9.95986,0.21612 c 1.76019,-0.89494 3.37225,-1.77935 3.58235,-1.96534 0.21011,-0.186 -1.95381,-2.89394 -4.80871,-6.01766 -14.50358,-15.86922 -16.78994,-34.65926 -6.67646,-54.86935 4.30467,-8.60216 13.98118,-22.54888 16.10316,-23.20943 0.62919,-0.19586 1,4.23123 1,11.93884 0,10.93045 0.29947,13.05807 2.77992,19.75012 1.52896,4.125 3.60947,8.58353 4.62337,9.90785 1.83291,2.39409 1.83827,2.37484 0.93747,-3.36945 -1.2798,-8.16122 0.8398,-19.04927 7.01568,-36.0384 2.7991,-7.7 5.83275,-16.925 6.74143,-20.5 2.03331,-7.99953 2.24109,-19.67797 0.48038,-27 C 345.11872,270.69257 335.89419,257.69394 325.3942,251.03504 322.76203,249.36577 320.28977,248 319.90029,248 c -0.38948,0 0.18274,2.34461 1.27159,5.21024 2.86992,7.553 3.41335,16.94512 1.43434,24.78976 -2.11553,8.38583 -5.85037,15.88598 -14.69009,29.5 -9.24347,14.23583 -18.33806,32.91353 -20.89382,42.90996 -2.71787,10.63055 -2.74274,25.04826 -0.0582,33.7347 2.19864,7.11418 6.00563,13.59488 11.70584,19.92708 3.53589,3.92791 12.9053,11.92826 13.96949,11.92826 0.25292,0 1.90001,-0.73223 3.6602,-1.62718 z m -43.45075,-31.22877 c -8.14072,-12.91008 -17.86894,-34.59071 -16.20565,-36.11647 1.89521,-1.73851 20.71129,-8.07303 21.5346,-7.24972 0.49877,0.49877 0.16074,3.84709 -0.78725,7.79811 -2.21634,9.23716 -2.23591,27.15743 -0.037,33.92403 0.89363,2.75 1.62966,5.5625 1.63562,6.25 0.0249,2.87174 -2.72643,0.80793 -6.14027,-4.60595 z m 0.8043,-9.23907 c -0.89452,-6.60816 0.0552,-20.79666 1.94947,-29.12344 l 0.61842,-2.71846 -7.36055,2.48823 c -10.75078,3.63429 -10.52965,3.39387 -8.38123,9.11211 2.84352,7.56833 12.92594,27.33658 13.9425,27.33658 0.10549,0 -0.24038,-3.19276 -0.76861,-7.09502 z M 384,388.10696 c 0,-0.49117 0.73386,-4.42867 1.6308,-8.75 2.13012,-10.26265 1.38961,-23.92514 -2.16613,-39.96522 l -2.67289,-12.05752 3.51248,-10.91711 c 5.64612,-17.54864 7.10706,-26.77218 7.15414,-45.16711 0.0229,-8.9375 0.43131,-16.25 0.90762,-16.25 3.86002,0 21.43105,17.53649 26.02113,25.96998 l 2.83686,5.21225 -1.19096,9.65889 c -2.28762,18.55286 -7.21678,36.71979 -15.16545,55.89385 C 398.85303,366.2435 386.94924,389 385.37449,389 384.61852,389 384,388.59813 384,388.10696 Z m 22.36338,-46.18768 c 4.99375,-13.46778 9.12882,-29.83818 11.09159,-43.91068 l 1.56286,-11.20519 -2.75433,-5.1517 C 413.51915,276.51867 397.13682,259 395.08108,259 394.36687,259 394,263.03851 394,270.90063 c 0,14.6236 -2.66712,31.01335 -7.45893,45.83588 l -3.51763,10.88111 2.69747,11.44119 c 2.30036,9.75686 2.70347,13.704 2.73828,26.81189 l 0.0408,15.37069 7,-14.45142 c 3.85,-7.94828 8.73852,-19.14009 10.86338,-24.87069 z m -185.06676,13.41131 c -1.63254,-4.25431 1.53486,-30.84376 4.0698,-34.16493 3.14515,-4.12064 27.86935,-13.59175 44.80774,-17.16454 10.38035,-2.1895 24.82584,-3.68224 24.82584,-2.5654 0,0.39781 -2.22609,5.3 -4.94687,10.89378 -2.72077,5.59377 -5.79591,12.1955 -6.83364,14.6705 l -1.88677,4.5 -13.41636,4.47138 c -7.63441,2.54438 -20.44712,8.00246 -29.73043,12.66483 -12.95863,6.50824 -16.43238,7.88512 -16.88931,6.69438 z m 45.55367,-21.35719 13.0524,-4.30597 2.21661,-5.58371 c 1.21913,-3.07105 3.96923,-9.11733 6.11133,-13.43618 l 3.89472,-7.85246 -5.31267,0.68311 c -17.81026,2.29004 -36.90207,7.6558 -51.37996,14.44037 -7.68514,3.60138 -8.38164,4.1784 -9.33853,7.73653 -1.51623,5.638 -3.05167,17.09655 -3.07438,22.9433 l -0.0198,5.09838 15.39894,-7.7087 c 8.46942,-4.23979 21.27252,-9.64639 28.45135,-12.01467 z M 466,320.96737 c -3.025,-2.10544 -10.69811,-6.54531 -17.05136,-9.86638 l -11.55136,-6.0383 -1.77959,-5.94093 c -6.61766,-22.09222 -33.99942,-49.35637 -60.33136,-60.07223 -14.42393,-5.86987 -23.34307,-7.53531 -39.78633,-7.42919 -17.20675,0.11105 -28.21035,2.4131 -42.00972,8.7888 -6.66637,3.08006 -10.49415,4.29925 -10.48891,3.34086 0.0139,-2.5356 3.49811,-18.73731 4.99393,-23.22171 3.42238,-10.26017 5.05046,-12.1532 12.40621,-14.42516 12.11915,-3.74322 22.56918,-5.20511 37.09849,-5.18983 28.07618,0.0295 49.98369,6.76224 74.5,22.89572 11.52343,7.58323 30.75693,26.92861 38.83318,39.05905 11.4576,17.2092 21.55675,41.79304 22.84764,55.6168 0.73113,7.82958 0.23297,7.99059 -7.68082,2.4825 z M 471.52193,317.25 C 470.3764,309.53366 465.15351,294.22869 459.98275,283.43595 452.42153,267.65371 444.00967,255.89955 431.0448,243 c -16.54257,-16.45923 -33.7244,-27.29297 -53.8419,-33.94919 -23.16276,-7.66378 -52.77497,-8.05981 -75.59634,-1.01101 -6.61354,2.04272 -6.8376,2.22316 -9.21882,7.42444 -2.55917,5.58997 -7.17545,24.08138 -6.24426,25.01258 0.29748,0.29748 3.56998,-0.83259 7.27221,-2.51126 3.70224,-1.67868 11.08576,-4.26208 16.40782,-5.74091 8.70474,-2.41875 11.33348,-2.68877 26.17649,-2.68877 14.88478,0 17.45772,0.266 26.28349,2.71725 5.38092,1.49449 13.20348,4.29739 17.38347,6.22866 23.57155,10.89073 47.4681,34.33887 56.45168,55.39239 1.55499,3.6442 2.84148,7.30082 2.85888,8.12582 0.0183,0.87051 3.91159,3.48012 9.27705,6.21837 5.08499,2.5951 12.39543,6.72732 16.24543,9.18271 3.85,2.45538 7.16359,4.49462 7.36354,4.53163 0.19995,0.037 0.0462,-2.07021 -0.34161,-4.68271 z M 243.54962,303.08028 c -1.47615,-2.38845 -2.73643,-24.02831 -2.21775,-38.08028 1.89904,-51.44867 20.83733,-94.37882 59.73035,-135.39934 10.30747,-10.87131 29.60245,-27.60377 31.81784,-27.59219 4.26543,0.0223 35.62312,31.31216 49.14207,49.03577 13.02313,17.07357 27.89453,43.91999 32.45324,58.5858 1.00354,3.22848 2.03026,6.43246 2.28161,7.11996 0.72999,1.99669 -2.47943,1.4503 -6.54085,-1.11356 -6.43521,-4.06238 -14.36677,-7.87826 -24.09174,-11.59058 l -9.37562,-3.57896 -6.22633,-9.89202 c -9.38045,-14.9031 -17.96504,-25.9581 -28.77782,-37.05929 L 331.98924,143.5 l -8.38364,8.67821 c -22.30999,23.09389 -39.24653,52.18369 -46.09074,79.16436 -3.9236,15.46729 -4.78466,24.30268 -4.34781,44.613 l 0.40636,18.89249 -9.5367,2.69804 c -5.24519,1.48391 -11.69087,3.5431 -14.32373,4.57596 -5.55356,2.17865 -5.42176,2.15816 -6.16336,0.95822 z m 16.41428,-6.69606 c 6.30514,-1.91327 11.52093,-3.56993 11.59063,-3.68145 0.0697,-0.11152 -0.26486,-4.47777 -0.74349,-9.70277 -3.69608,-40.34862 9.78081,-81.91637 38.06205,-117.39758 C 316.96617,155.44896 330.4701,141 331.86639,141 c 1.49671,0 13.30233,12.0548 21.77497,22.23459 7.16133,8.60426 16.34476,21.65768 21.64429,30.76541 2.32581,3.99712 3.37811,4.7646 9.41639,6.86775 3.73888,1.30227 11.83982,4.98437 18.0021,8.18246 l 11.20413,5.8147 -2.58202,-7.18245 C 407.63883,197.42512 397.21297,177.01962 390.28475,166.5 378.09373,147.9895 357.71524,125.06978 340.19627,110.16541 l -7.30372,-6.21369 -6.09048,4.77414 c -8.94589,7.01242 -30.37718,28.49491 -38.18291,38.27414 -3.73156,4.675 -9.93756,13.225 -13.7911,19 -21.37285,32.02978 -33.42246,75.46413 -31.48732,113.5 0.89778,17.64621 1.591,21.74106 3.55232,20.98354 0.88382,-0.34136 6.76569,-2.18605 13.07084,-4.09932 z"
       id="path1" />
    <path
       style="fill:#d4af37;fill-opacity:1;stroke-width:0.82404"
       d="M 307.36679,588.70195 C 240.48706,581.27225 181.44462,550.4669 137.01682,499.82199 98.812825,456.27184 76.193723,399.8903 73.692472,341.97646 73.076821,327.7217 74.423799,299.41711 76.26113,288.00024 78.07639,276.72052 83.381102,255.37103 87.227403,243.86508 102.92861,196.896 136.84237,151.08921 178.8166,120.15696 208.16049,98.532447 243.66848,83.120994 280.85189,75.870817 c 18.08816,-3.526905 25.44681,-3.9959 55.76126,-3.55388 30.9527,0.451325 36.41488,1.078243 59.62758,6.843695 46.8272,11.630703 86.37586,33.894528 120.08954,67.604138 27.25008,27.24679 45.79702,56.08368 59.1892,92.02771 7.02973,18.86749 12.83372,44.38002 14.55582,63.98286 1.30436,14.84751 0.55377,52.64824 -1.27744,64.33433 -6.21507,39.66211 -18.89026,73.21865 -39.13979,103.6194 -43.16226,64.79973 -105.30877,104.66603 -182.13637,116.83844 -10.24558,1.62329 -49.15008,2.35698 -60.1549,1.13444 z m 40.78996,-9.41485 c 41.37908,-2.15151 85.47011,-17.07687 121.49781,-41.12851 C 535.89758,493.93557 576.53115,423.80334 581.07446,345.85144 584.31052,290.32882 570.21172,235.1853 541.94956,192.82528 509.16704,143.69002 459.3888,107.04345 403.8132,91.129786 c -25.78644,-7.383758 -41.75909,-9.492721 -72.13724,-9.524702 -25.64602,-0.027 -35.2479,0.851565 -54.79864,5.014025 -79.80447,16.990821 -147.09027,73.775421 -176.3529,148.829751 -6.604693,16.94006 -11.09628,33.20948 -14.967109,54.21383 -1.75599,9.52856 -1.89446,12.4769 -1.87643,39.95317 0.01882,28.67652 0.09549,30.09957 2.300159,42.6886 11.798301,67.37046 51.33288,127.33618 109.31636,165.81018 37.79896,25.08087 79.1511,38.8163 125.04753,41.53544 5.77884,0.34238 12.36108,0.50681 14.62719,0.36542 2.26611,-0.1414 8.19919,-0.46918 13.18463,-0.7284 z"
       id="path2" />
    <path
       style="fill:#d4af37;fill-opacity:1;stroke-width:0.82404"
       d="m 201.06568,478.61986 c -6.45906,-0.66162 -20.38013,-3.83378 -28.67409,-6.53389 -17.9486,-5.84316 -44.66544,-20.88683 -44.66544,-25.15013 0,-3.28114 4.20529,-20.15507 7.41697,-29.76092 3.57702,-10.69856 11.14837,-27.14667 15.88144,-34.50108 7.03141,-10.92564 21.92566,-27.93007 22.88524,-26.12756 0.31825,0.59781 0.83025,3.86806 1.13777,7.26723 0.30752,3.39916 1.1266,9.82748 1.82018,14.28515 l 1.26105,8.10486 -4.22295,6.88621 c -8.36395,13.63881 -18.16236,36.85148 -18.16236,43.02709 0,1.33588 0.64894,3.01212 1.44207,3.725 3.18037,2.85853 24.14489,10.03433 37.87233,12.96307 7.86171,1.67729 10.10225,1.77284 34.19765,1.45844 22.69701,-0.29616 26.8702,-0.55923 34.84917,-2.19676 20.26666,-4.15936 35.76889,-10.8092 54.71618,-23.47105 23.12073,-15.45081 32.26373,-26.69263 34.09818,-41.92556 0.81394,-6.75873 0.80249,-6.83162 -2.68169,-17.08818 -4.47869,-13.1841 -4.37615,-17.12479 0.76121,-29.2534 9.12955,-21.5537 10.6635,-25.59368 11.20068,-29.49949 0.51924,-3.77527 0.68828,-4.04374 1.68658,-2.67849 2.0667,2.82639 4.40988,11.51568 8.14918,30.2199 3.35223,16.76803 3.72705,19.80033 3.72705,30.15164 0,14.03765 -1.46984,20.57586 -7.43107,33.05516 -5.84218,12.23007 -12.17341,21.33347 -21.76078,31.28888 -24.03625,24.95894 -56.93739,40.79971 -94.39248,45.44674 -6.35141,0.78801 -44.19749,1.01544 -51.11207,0.30714 z"
       id="path3" />
    <path
       style="fill:#d4af37;fill-opacity:1;stroke-width:0.82404"
       d="m 219.88894,440.58521 c -14.26132,-15.87794 -26.30416,-40.48905 -30.91317,-63.17505 -2.34958,-11.56487 -2.103,-42.13531 0.43536,-53.9746 4.06987,-18.98247 12.0012,-37.96452 22.22115,-53.18188 4.39158,-6.539 19.34331,-24.27784 20.46332,-24.27784 0.23479,0 0.16369,8.80692 -0.15799,19.57094 l -0.58488,19.57094 -4.39636,7.74199 c -15.37653,27.07803 -19.27319,62.86797 -10.12963,93.03831 2.34861,7.74955 11.18513,25.56032 17.04824,34.3622 2.7171,4.079 7.38567,10.25794 10.37461,13.73097 2.98893,3.47304 5.43442,6.70089 5.43442,7.17301 0,0.47211 -1.20515,1.06414 -2.67812,1.31561 -2.83532,0.48405 -19.85765,2.08773 -22.17271,2.08889 -0.75114,3.8e-4 -2.97605,-1.79219 -4.94424,-3.98349 z"
       id="path4" />
    <path
       style="fill:#d4af37;fill-opacity:1;stroke-width:0.82404"
       d="m 223.61847,345.31957 c 0.61775,-8.78828 2.43544,-19.30352 3.7669,-21.79138 1.64346,-3.07084 20.69981,-11.00895 35.70769,-14.87439 9.95082,-2.56295 26.70871,-5.53006 27.38929,-4.84948 0.2288,0.2288 -1.78312,5.01755 -4.47094,10.64165 -2.68781,5.62411 -5.13146,11.20697 -5.43033,12.40637 -0.48656,1.95262 -1.71956,2.58787 -11.78837,6.07343 -12.90618,4.46778 -21.18468,8.01007 -35.5541,15.21324 l -10.17693,5.10154 z"
       id="path5" />
    <path
       style="fill:#d4af37;fill-opacity:1;stroke-width:0.82404"
       d="m 245.41472,298.00892 c -1.33437,-3.35751 -1.87987,-36.33848 -0.75911,-45.89555 4.51819,-38.52791 19.51488,-73.80029 44.6275,-104.96435 7.03164,-8.72607 34.63896,-36.19778 40.12021,-39.92313 l 3.4891,-2.37139 2.68793,2.06495 c 14.68843,11.28414 40.80039,39.83842 52.90289,57.85104 6.16972,9.18265 15.09561,25.77568 19.59618,36.42889 5.96592,14.12179 6.33876,13.45753 -4.43813,7.90727 -5.13608,-2.64516 -12.49027,-6.05745 -16.34265,-7.58288 -8.25503,-3.26873 -9.57647,-4.3361 -13.67364,-11.04459 -4.99379,-8.17659 -14.10626,-20.80002 -20.61394,-28.55633 -7.28332,-8.68077 -19.89521,-21.4221 -21.21149,-21.42919 -0.52121,-0.003 -3.86596,3.05644 -7.43279,6.79833 -39.08001,40.99804 -56.92927,84.93064 -53.99351,132.89482 0.38627,6.31086 0.43173,11.74371 0.10101,12.073 -0.33071,0.32929 -5.90958,2.24776 -12.39749,4.26325 l -11.7962,3.66455 z"
       id="path6" />
    <path
       style="fill:#d4af37;fill-opacity:1;stroke-width:0.82404"
       d="m 466.81846,318.33182 c -2.26611,-1.41632 -8.75542,-5.1512 -14.42069,-8.29973 -5.66527,-3.14853 -10.89481,-6.33412 -11.62118,-7.07909 -0.72639,-0.74497 -2.17804,-3.71455 -3.22591,-6.59909 -8.37483,-23.05386 -36.66002,-50.18925 -62.86662,-60.31105 -14.59844,-5.63838 -19.93454,-6.54346 -38.59168,-6.54574 -15.4361,-0.002 -17.7342,0.18645 -24.85677,2.03705 -4.31649,1.12151 -11.49532,3.49539 -15.95297,5.27527 -9.76118,3.89752 -9.66763,4.01626 -6.50575,-8.25765 2.41446,-9.37254 4.91269,-15.67145 6.92353,-17.45669 1.84771,-1.64039 11.28854,-4.34682 20.31879,-5.82484 27.70943,-4.53533 53.76095,-0.70473 78.28376,11.51079 13.38423,6.66706 23.09777,13.95617 36.69531,27.5364 16.18073,16.16013 24.49245,28.5499 32.34628,48.21663 4.17135,10.44542 8.25145,24.31478 7.86138,26.72286 -0.25217,1.55677 -0.50008,1.5045 -4.38748,-0.92512 z"
       id="path7" />
    <path
       style="fill:#d4af37;fill-opacity:1;stroke-width:0.82404"
       d="m 388.9983,367.91209 c -0.0606,-13.08838 -0.98643,-21.32731 -3.61949,-32.20892 l -1.91676,-7.92136 2.74434,-8.55943 c 5.17336,-16.13541 8.45617,-36.87641 8.49556,-53.6756 0.008,-3.2558 0.36474,-5.56227 0.8612,-5.56227 2.13266,0 18.59801,18.403 21.42731,23.9489 l 1.64824,3.23081 -1.67234,10.92532 c -3.93228,25.68948 -9.42692,42.40759 -23.76775,72.31628 l -4.14872,8.65242 z"
       id="path8" />
    <path
       style="fill:#d4af37;fill-opacity:1;stroke-width:0.82404"
       d="m 426.62677,478.65638 c -0.2476,-0.40063 4.72877,-6.00919 11.05861,-12.46346 10.88088,-11.0948 11.68284,-11.73505 14.69904,-11.73505 13.73433,0 44.42683,-8.59681 54.60598,-15.29485 3.92354,-2.58175 3.93624,-3.91156 0.13567,-14.20055 -9.52518,-25.7868 -21.61477,-44.11774 -40.14438,-60.86921 -10.91932,-9.87148 -27.67967,-19.80046 -40.12915,-23.77286 -6.58337,-2.10064 -6.69025,-2.24976 -5.19911,-7.25375 0.70062,-2.35115 2.11836,-7.61219 3.15052,-11.69119 1.22667,-4.84764 2.30559,-7.50305 3.11502,-7.66667 3.92575,-0.79355 31.20649,12.39472 42.75746,20.67014 33.66141,24.11592 55.52813,56.93584 64.54364,96.87398 2.85407,12.64342 2.7554,15.62098 -0.62435,18.84052 -10.36702,9.87557 -36.39572,21.26647 -59.94888,26.23533 -8.76742,1.84962 -13.074,2.23875 -28.93519,2.61453 -10.44714,0.24752 -18.83249,0.12146 -19.08488,-0.28691 z"
       id="path9" />
    <path
       style="fill:#d4af37;fill-opacity:1;stroke-width:0.82404"
       d="m 310.14829,497.40442 c -13.15559,-2.39875 -33.52963,-9.32696 -31.86451,-10.83556 0.3595,-0.32571 4.91805,-1.99137 10.1301,-3.70147 5.21205,-1.71011 12.81382,-4.55135 16.89281,-6.31386 l 7.41636,-3.20458 7.74062,0.97159 c 23.85125,2.99375 52.10147,-3.81566 72.19122,-17.40093 13.13881,-8.88483 28.60151,-24.52501 37.88663,-38.32148 9.90496,-14.71746 15.55736,-28.20407 18.06166,-43.09514 0.70995,-4.2215 1.50585,-8.02338 1.76867,-8.44864 0.82819,-1.34003 3.50009,0.7009 13.12778,10.02762 l 9.297,9.00639 -3.19396,8.84553 c -19.4611,53.89655 -59.70119,90.21181 -112.57575,101.59559 -11.74181,2.52799 -35.39188,2.96939 -46.87863,0.87494 z"
       id="path10" />
    <path
       style="fill:#d4af37;fill-opacity:1;stroke-width:0.82404"
       d="m 352.85056,456.46677 c -2.85706,-1.63815 -5.08197,-3.27158 -4.94424,-3.62987 0.37686,-0.98029 16.4103,-14.85982 17.16586,-14.85982 0.6874,0 19.91253,8.1239 20.41557,8.62694 0.48866,0.48867 -10.60732,6.66897 -16.89752,9.41168 -8.85017,3.85892 -9.75104,3.88474 -15.73967,0.45107 z"
       id="path11" />
    <path
       style="fill:#d4af37;fill-opacity:1;stroke-width:0.82404"
       d="m 307.6118,411.73216 c -9.14717,-7.63895 -15.46082,-15.67997 -18.83859,-23.99271 -4.27376,-10.51781 -4.41614,-27.6331 -0.33638,-40.4371 2.59994,-8.15971 13.02018,-28.62693 21.76026,-42.74105 10.47957,-16.92318 12.96766,-23.35697 13.41475,-34.68831 0.27319,-6.92389 0.013,-9.8024 -1.30269,-14.40884 -0.90425,-3.16604 -1.49835,-5.90217 -1.32022,-6.0803 0.80823,-0.80823 9.10562,5.516 13.37902,10.19743 5.51792,6.04478 9.36521,12.16472 11.94433,19.00003 1.61709,4.2857 1.84098,6.41213 1.8161,17.24893 l -0.0284,12.36059 -5.90837,17.30483 c -7.88661,23.09889 -8.72155,26.51982 -8.7911,36.01949 -0.0322,4.40118 -0.31753,7.73854 -0.63402,7.41636 -0.31649,-0.32218 -1.78437,-3.55233 -3.26196,-7.1781 -2.45296,-6.01916 -2.75634,-7.75655 -3.4894,-19.98296 -0.61199,-10.20721 -1.06404,-13.39065 -1.90145,-13.39065 -1.33133,0 -7.89544,8.80421 -12.88567,17.28308 -9.38134,15.93978 -11.68753,30.1168 -7.0784,43.51349 2.09198,6.08043 4.93527,10.80793 10.31281,17.14692 2.44249,2.87919 4.4409,5.42393 4.4409,5.65497 0,0.23105 -1.46573,1.16785 -3.25716,2.08177 l -3.25716,1.66168 z"
       id="path12" />
    <path
       style="fill:#d4af37;fill-opacity:1;stroke-width:0.82404"
       d="m 267.53909,367.7277 c -6.91774,-13.83928 -8.38422,-17.88827 -6.95558,-19.2045 1.37791,-1.26949 13.73171,-5.67535 14.30525,-5.10181 0.24422,0.24422 -0.008,2.80015 -0.56065,5.67985 -0.55257,2.8797 -1.0394,10.70536 -1.08182,17.39036 -0.0424,6.685 -0.11591,12.15457 -0.16329,12.15459 -0.0474,1e-5 -2.54214,-4.91331 -5.54391,-10.91849 z"
       id="path13" />
  </g>
</svg>
